# xmcd
#
# Track frame offsets:
#	150
#	17339
#	38814
#	57170
#	85920
#	107336
#	125185
#	144207
#	163835
#	181938
#	199301
#	216258
#	233754
#	250486
#	268200
#	282320
#	300422
#	324830
#
# Disc length: 4568 seconds
#
# Revision: 0
# Processed by: cddbd v1.5.2PL0 Copyright (c) Steve Scherf et al.
# Submitted via: EasyCDDAExtractor 9.1.3.1
#
DISCID=fb11d612
DTITLE=Keith Urban - Greatest Hits: 18 Kids
DYEAR=2007
DGENRE=Country
TTITLE0=Romeo's Tune
TTITLE1=Got It Right This Time (The Celebration)
TTITLE2=I Told You So [Radio Edit]
TTITLE3=Stupid Boy
TTITLE4=Better Life
TTITLE5=Making Memories of Us [Radio Edit]
TTITLE6=Once in a Lifetime [Radio Edit]
TTITLE7=Tonight I Wanna Cry
TTITLE8=You're My Better Half [Radio Edit]
TTITLE9=Days Go By [Radio Edit]
TTITLE10=But for the Grace of God [Radio Edit]
TTITLE11=You'll Think of Me [Radio Edit]
TTITLE12=Who Wouldn't Wanna Be Me [Radio Edit]
TTITLE13=Raining on Sunday [Radio Edit]
TTITLE14=Where the Blacktop Ends [Radio Edit]
TTITLE15=Your Everything [Radio Edit]
TTITLE16=Somebody Like You
TTITLE17=Everybody [Radio Edit]
EXTD=
EXTT0=
EXTT1=
EXTT2=
EXTT3=
EXTT4=
EXTT5=
EXTT6=
EXTT7=
EXTT8=
EXTT9=
EXTT10=
EXTT11=
EXTT12=
EXTT13=
EXTT14=
EXTT15=
EXTT16=
EXTT17=
PLAYORDER=
